<?xml version="1.0" encoding="UTF-8" ?>
<svg version="1.1" viewBox="0 0 24 24" xmlns="http://www.w3.org/2000/svg" shape-rendering="crispEdges">
<rect x="2" y="8" width="1" height="1" fill="#9BADB7" />
<rect x="3" y="8" width="1" height="1" fill="#9BADB7" />
<rect x="21" y="8" width="1" height="1" fill="#9BADB7" />
<rect x="22" y="8" width="1" height="1" fill="#9BADB7" />
<rect x="2" y="9" width="1" height="1" fill="#9BADB7" />
<rect x="3" y="9" width="1" height="1" fill="#9BADB7" />
<rect x="4" y="9" width="1" height="1" fill="#9BADB7" />
<rect x="20" y="9" width="1" height="1" fill="#9BADB7" />
<rect x="21" y="9" width="1" height="1" fill="#9BADB7" />
<rect x="22" y="9" width="1" height="1" fill="#9BADB7" />
<rect x="3" y="10" width="1" height="1" fill="#9BADB7" />
<rect x="4" y="10" width="1" height="1" fill="#9BADB7" />
<rect x="5" y="10" width="1" height="1" fill="#9BADB7" />
<rect x="19" y="10" width="1" height="1" fill="#9BADB7" />
<rect x="20" y="10" width="1" height="1" fill="#9BADB7" />
<rect x="21" y="10" width="1" height="1" fill="#9BADB7" />
<rect x="4" y="11" width="1" height="1" fill="#9BADB7" />
<rect x="5" y="11" width="1" height="1" fill="#9BADB7" />
<rect x="6" y="11" width="1" height="1" fill="#9BADB7" />
<rect x="18" y="11" width="1" height="1" fill="#9BADB7" />
<rect x="19" y="11" width="1" height="1" fill="#9BADB7" />
<rect x="20" y="11" width="1" height="1" fill="#9BADB7" />
<rect x="5" y="12" width="1" height="1" fill="#9BADB7" />
<rect x="6" y="12" width="1" height="1" fill="#9BADB7" />
<rect x="7" y="12" width="1" height="1" fill="#9BADB7" />
<rect x="17" y="12" width="1" height="1" fill="#9BADB7" />
<rect x="18" y="12" width="1" height="1" fill="#9BADB7" />
<rect x="19" y="12" width="1" height="1" fill="#9BADB7" />
<rect x="6" y="13" width="1" height="1" fill="#9BADB7" />
<rect x="7" y="13" width="1" height="1" fill="#9BADB7" />
<rect x="8" y="13" width="1" height="1" fill="#9BADB7" />
<rect x="16" y="13" width="1" height="1" fill="#9BADB7" />
<rect x="17" y="13" width="1" height="1" fill="#9BADB7" />
<rect x="18" y="13" width="1" height="1" fill="#9BADB7" />
<rect x="7" y="14" width="1" height="1" fill="#9BADB7" />
<rect x="8" y="14" width="1" height="1" fill="#9BADB7" />
<rect x="9" y="14" width="1" height="1" fill="#9BADB7" />
<rect x="15" y="14" width="1" height="1" fill="#9BADB7" />
<rect x="16" y="14" width="1" height="1" fill="#9BADB7" />
<rect x="17" y="14" width="1" height="1" fill="#9BADB7" />
<rect x="8" y="15" width="1" height="1" fill="#9BADB7" />
<rect x="9" y="15" width="1" height="1" fill="#9BADB7" />
<rect x="10" y="15" width="1" height="1" fill="#9BADB7" />
<rect x="14" y="15" width="1" height="1" fill="#9BADB7" />
<rect x="15" y="15" width="1" height="1" fill="#9BADB7" />
<rect x="16" y="15" width="1" height="1" fill="#9BADB7" />
<rect x="9" y="16" width="1" height="1" fill="#9BADB7" />
<rect x="10" y="16" width="1" height="1" fill="#9BADB7" />
<rect x="11" y="16" width="1" height="1" fill="#9BADB7" />
<rect x="13" y="16" width="1" height="1" fill="#9BADB7" />
<rect x="14" y="16" width="1" height="1" fill="#9BADB7" />
<rect x="15" y="16" width="1" height="1" fill="#9BADB7" />
<rect x="10" y="17" width="1" height="1" fill="#9BADB7" />
<rect x="11" y="17" width="1" height="1" fill="#9BADB7" />
<rect x="12" y="17" width="1" height="1" fill="#9BADB7" />
<rect x="13" y="17" width="1" height="1" fill="#9BADB7" />
<rect x="14" y="17" width="1" height="1" fill="#9BADB7" />
<rect x="11" y="18" width="1" height="1" fill="#9BADB7" />
<rect x="12" y="18" width="1" height="1" fill="#9BADB7" />
<rect x="13" y="18" width="1" height="1" fill="#9BADB7" />
</svg>