<?xml version="1.0" encoding="UTF-8" ?>
<svg version="1.1" viewBox="0 0 24 24" xmlns="http://www.w3.org/2000/svg" shape-rendering="crispEdges">
<rect x="6" y="3" width="1" height="1" fill="#9BADB7" />
<rect x="7" y="3" width="1" height="1" fill="#9BADB7" />
<rect x="8" y="3" width="1" height="1" fill="#9BADB7" />
<rect x="15" y="3" width="1" height="1" fill="#9BADB7" />
<rect x="16" y="3" width="1" height="1" fill="#9BADB7" />
<rect x="17" y="3" width="1" height="1" fill="#9BADB7" />
<rect x="6" y="4" width="1" height="1" fill="#9BADB7" />
<rect x="7" y="4" width="1" height="1" fill="#9BADB7" />
<rect x="8" y="4" width="1" height="1" fill="#9BADB7" />
<rect x="15" y="4" width="1" height="1" fill="#9BADB7" />
<rect x="16" y="4" width="1" height="1" fill="#9BADB7" />
<rect x="17" y="4" width="1" height="1" fill="#9BADB7" />
<rect x="6" y="5" width="1" height="1" fill="#9BADB7" />
<rect x="7" y="5" width="1" height="1" fill="#9BADB7" />
<rect x="8" y="5" width="1" height="1" fill="#9BADB7" />
<rect x="15" y="5" width="1" height="1" fill="#9BADB7" />
<rect x="16" y="5" width="1" height="1" fill="#9BADB7" />
<rect x="17" y="5" width="1" height="1" fill="#9BADB7" />
<rect x="6" y="6" width="1" height="1" fill="#9BADB7" />
<rect x="7" y="6" width="1" height="1" fill="#9BADB7" />
<rect x="8" y="6" width="1" height="1" fill="#9BADB7" />
<rect x="15" y="6" width="1" height="1" fill="#9BADB7" />
<rect x="16" y="6" width="1" height="1" fill="#9BADB7" />
<rect x="17" y="6" width="1" height="1" fill="#9BADB7" />
<rect x="6" y="7" width="1" height="1" fill="#9BADB7" />
<rect x="7" y="7" width="1" height="1" fill="#9BADB7" />
<rect x="8" y="7" width="1" height="1" fill="#9BADB7" />
<rect x="15" y="7" width="1" height="1" fill="#9BADB7" />
<rect x="16" y="7" width="1" height="1" fill="#9BADB7" />
<rect x="17" y="7" width="1" height="1" fill="#9BADB7" />
<rect x="6" y="8" width="1" height="1" fill="#9BADB7" />
<rect x="7" y="8" width="1" height="1" fill="#9BADB7" />
<rect x="8" y="8" width="1" height="1" fill="#9BADB7" />
<rect x="15" y="8" width="1" height="1" fill="#9BADB7" />
<rect x="16" y="8" width="1" height="1" fill="#9BADB7" />
<rect x="17" y="8" width="1" height="1" fill="#9BADB7" />
<rect x="6" y="9" width="1" height="1" fill="#9BADB7" />
<rect x="7" y="9" width="1" height="1" fill="#9BADB7" />
<rect x="8" y="9" width="1" height="1" fill="#9BADB7" />
<rect x="15" y="9" width="1" height="1" fill="#9BADB7" />
<rect x="16" y="9" width="1" height="1" fill="#9BADB7" />
<rect x="17" y="9" width="1" height="1" fill="#9BADB7" />
<rect x="6" y="10" width="1" height="1" fill="#9BADB7" />
<rect x="7" y="10" width="1" height="1" fill="#9BADB7" />
<rect x="8" y="10" width="1" height="1" fill="#9BADB7" />
<rect x="15" y="10" width="1" height="1" fill="#9BADB7" />
<rect x="16" y="10" width="1" height="1" fill="#9BADB7" />
<rect x="17" y="10" width="1" height="1" fill="#9BADB7" />
<rect x="6" y="11" width="1" height="1" fill="#9BADB7" />
<rect x="7" y="11" width="1" height="1" fill="#9BADB7" />
<rect x="8" y="11" width="1" height="1" fill="#9BADB7" />
<rect x="15" y="11" width="1" height="1" fill="#9BADB7" />
<rect x="16" y="11" width="1" height="1" fill="#9BADB7" />
<rect x="17" y="11" width="1" height="1" fill="#9BADB7" />
<rect x="6" y="12" width="1" height="1" fill="#9BADB7" />
<rect x="7" y="12" width="1" height="1" fill="#9BADB7" />
<rect x="8" y="12" width="1" height="1" fill="#9BADB7" />
<rect x="15" y="12" width="1" height="1" fill="#9BADB7" />
<rect x="16" y="12" width="1" height="1" fill="#9BADB7" />
<rect x="17" y="12" width="1" height="1" fill="#9BADB7" />
<rect x="6" y="13" width="1" height="1" fill="#9BADB7" />
<rect x="7" y="13" width="1" height="1" fill="#9BADB7" />
<rect x="8" y="13" width="1" height="1" fill="#9BADB7" />
<rect x="15" y="13" width="1" height="1" fill="#9BADB7" />
<rect x="16" y="13" width="1" height="1" fill="#9BADB7" />
<rect x="17" y="13" width="1" height="1" fill="#9BADB7" />
<rect x="6" y="14" width="1" height="1" fill="#9BADB7" />
<rect x="7" y="14" width="1" height="1" fill="#9BADB7" />
<rect x="8" y="14" width="1" height="1" fill="#9BADB7" />
<rect x="15" y="14" width="1" height="1" fill="#9BADB7" />
<rect x="16" y="14" width="1" height="1" fill="#9BADB7" />
<rect x="17" y="14" width="1" height="1" fill="#9BADB7" />
<rect x="6" y="15" width="1" height="1" fill="#9BADB7" />
<rect x="7" y="15" width="1" height="1" fill="#9BADB7" />
<rect x="8" y="15" width="1" height="1" fill="#9BADB7" />
<rect x="15" y="15" width="1" height="1" fill="#9BADB7" />
<rect x="16" y="15" width="1" height="1" fill="#9BADB7" />
<rect x="17" y="15" width="1" height="1" fill="#9BADB7" />
<rect x="6" y="16" width="1" height="1" fill="#9BADB7" />
<rect x="7" y="16" width="1" height="1" fill="#9BADB7" />
<rect x="8" y="16" width="1" height="1" fill="#9BADB7" />
<rect x="15" y="16" width="1" height="1" fill="#9BADB7" />
<rect x="16" y="16" width="1" height="1" fill="#9BADB7" />
<rect x="17" y="16" width="1" height="1" fill="#9BADB7" />
<rect x="6" y="17" width="1" height="1" fill="#9BADB7" />
<rect x="7" y="17" width="1" height="1" fill="#9BADB7" />
<rect x="8" y="17" width="1" height="1" fill="#9BADB7" />
<rect x="15" y="17" width="1" height="1" fill="#9BADB7" />
<rect x="16" y="17" width="1" height="1" fill="#9BADB7" />
<rect x="17" y="17" width="1" height="1" fill="#9BADB7" />
<rect x="6" y="18" width="1" height="1" fill="#9BADB7" />
<rect x="7" y="18" width="1" height="1" fill="#9BADB7" />
<rect x="8" y="18" width="1" height="1" fill="#9BADB7" />
<rect x="15" y="18" width="1" height="1" fill="#9BADB7" />
<rect x="16" y="18" width="1" height="1" fill="#9BADB7" />
<rect x="17" y="18" width="1" height="1" fill="#9BADB7" />
<rect x="6" y="19" width="1" height="1" fill="#9BADB7" />
<rect x="7" y="19" width="1" height="1" fill="#9BADB7" />
<rect x="8" y="19" width="1" height="1" fill="#9BADB7" />
<rect x="15" y="19" width="1" height="1" fill="#9BADB7" />
<rect x="16" y="19" width="1" height="1" fill="#9BADB7" />
<rect x="17" y="19" width="1" height="1" fill="#9BADB7" />
<rect x="6" y="20" width="1" height="1" fill="#9BADB7" />
<rect x="7" y="20" width="1" height="1" fill="#9BADB7" />
<rect x="8" y="20" width="1" height="1" fill="#9BADB7" />
<rect x="15" y="20" width="1" height="1" fill="#9BADB7" />
<rect x="16" y="20" width="1" height="1" fill="#9BADB7" />
<rect x="17" y="20" width="1" height="1" fill="#9BADB7" />
</svg>